<svg width="60" height="60" viewBox="0 0 60 60" fill="none" xmlns="http://www.w3.org/2000/svg">
<path d="M50.625 50.625V31.875H39.375L24.375 20.625V31.875L9.375 20.625V50.625H50.625Z" fill="#62DF8F"/>
<path d="M18.75 41.25H25.3125" stroke="#22394A" stroke-width="2" stroke-linecap="round" stroke-linejoin="round"/>
<path d="M34.6875 41.25H41.25" stroke="#22394A" stroke-width="2" stroke-linecap="round" stroke-linejoin="round"/>
<path d="M50.625 50.625V31.875H39.375L24.375 20.625V31.875L9.375 20.625V50.625" stroke="#22394A" stroke-width="2" stroke-linecap="round" stroke-linejoin="round"/>
<path d="M3.75 50.625H56.25" stroke="#22394A" stroke-width="2" stroke-linecap="round" stroke-linejoin="round"/>
<path d="M50.625 31.875L47.1094 7.24219C47.0473 6.79483 46.8258 6.38491 46.4856 6.0878C46.1454 5.79069 45.7095 5.62636 45.2578 5.625H40.9922C40.5405 5.62636 40.1046 5.79069 39.7644 6.0878C39.4242 6.38491 39.2027 6.79483 39.1406 7.24219L35.9766 29.3437" stroke="#22394A" stroke-width="2" stroke-linecap="round" stroke-linejoin="round"/>
</svg>
